# xmcd
# Track frame offsets:
# 150
# 15598
# 31740
# 49740
# 62158
# 77265
# 90780
# 106860
# 124100
# 137075
# 151928
# 165963
# 179480
# 194335
# 210597
#
# Disc length: 3009 seconds
# Revision: 0
# Processed by: cddbd v1.4PL0 Copyright (c) Steve Scherf et al.
# Submitted via: VisiTrax 2.9.5.180 - For more info visit www.synapsa.com
#
DISCID=ad0bbf0f
DTITLE=Billy D. Hunter - Another Country Unlimited
DYEAR=1900
DGENRE=
TTITLE0=Dealing With The Devil
TTITLE1=Jamey
TTITLE2=The Tumbleweed Kid
TTITLE3=After The Storm
TTITLE4=Candle In The Wind
TTITLE5=Ain´t You Ever Gonna Cry
TTITLE6=Mr. Jesus
TTITLE7=Liquid Salvation
TTITLE8=To Get To You
TTITLE9=P´d Rather Live Right
TTITLE10=You Have Everything Going For You
TTITLE11=Love Ain´t Worth A DimeUnless It´s Free
TTITLE12=Heart Talk
TTITLE13=I Have All I Need
TTITLE14=Is It Time To Go Home
EXTD=
EXTT0=
EXTT1=
EXTT2=
EXTT3=
EXTT4=
EXTT5=
EXTT6=
EXTT7=
EXTT8=
EXTT9=
EXTT10=
EXTT11=
EXTT12=
EXTT13=
EXTT14=
PLAYORDER=
